<svg xmlns="http://www.w3.org/2000/svg" version="1.1" xmlns:xlink="http://www.w3.org/1999/xlink" xmlns:svgjs="http://svgjs.dev/svgjs" width="100" height="100" viewBox="0 0 1500 1500"><rect width="1500" height="1500" fill="#ffffff"></rect><g transform="matrix(0.6666666666666666,0,0,0.6666666666666666,249.39393939393938,628.6008011354676)"><svg viewBox="0 0 396 96" data-background-color="#1f299c" preserveAspectRatio="xMidYMid meet" height="363" width="1500" xmlns="http://www.w3.org/2000/svg" xmlns:xlink="http://www.w3.org/1999/xlink"><g id="tight-bounds" transform="matrix(1,0,0,1,0.2400000000000091,0.15835988014509894)"><svg viewBox="0 0 395.52 95.68328023970982" height="95.68328023970982" width="395.52"><g><svg viewBox="0 0 395.52 95.68328023970982" height="95.68328023970982" width="395.52"><g><svg viewBox="0 0 395.52 95.68328023970982" height="95.68328023970982" width="395.52"><g id="textblocktransform"><svg viewBox="0 0 395.52 95.68328023970982" height="95.68328023970982" width="395.52" id="textblock"><g><svg viewBox="0 0 395.52 95.68328023970982" height="95.68328023970982" width="395.52"><g transform="matrix(1,0,0,1,0,0)"><svg width="395.52" viewBox="1.25 -36.84 154.79 37.45" height="95.68328023970982" data-palette-color="#e1eaf9"><g class="wordmark-text-0" data-fill-palette-color="primary" id="text-0"><path d="M34.59-33.54L34.59-31.4 31.81-31.2Q31.27-31.18 31.02-30.82 30.76-30.47 30.76-30.1L30.76-30.1 30.76 0 26.86 0 8.25-28 8.25-3.44Q8.25-3.08 8.51-2.73 8.76-2.39 9.3-2.34L9.3-2.34 12.16-2.15 12.16 0 1.34 0 1.34-2.15 4.2-2.34Q4.74-2.39 5.02-2.73 5.3-3.08 5.3-3.44L5.3-3.44 5.3-30.1Q5.3-30.47 5.02-30.82 4.74-31.18 4.2-31.2L4.2-31.2 1.25-31.4 1.25-33.54 11.16-33.54 11.16-32.3 27.81-7.15 27.81-30.1Q27.81-30.47 27.54-30.82 27.27-31.18 26.76-31.2L26.76-31.2 23.9-31.4 23.9-33.54 34.59-33.54ZM46.95-32.35L46.95-32.35Q46.95-31.08 46.07-30.16 45.19-29.25 43.92-29.25L43.92-29.25Q42.65-29.25 41.73-30.16 40.82-31.08 40.82-32.35L40.82-32.35Q40.82-33.64 41.73-34.52 42.65-35.4 43.92-35.4L43.92-35.4Q45.19-35.4 46.07-34.52 46.95-33.64 46.95-32.35ZM49.51-1.95L49.51 0 37.77 0 37.77-1.95 40.21-2.1Q41.26-2.17 41.26-3.2L41.26-3.2 41.26-21.04 37.81-21.04 37.81-22.8 43.92-24.71 45.9-24.71 45.9-3.2Q45.9-2.73 46.2-2.44 46.51-2.15 46.95-2.1L46.95-2.1 49.51-1.95ZM77.41-1.95L77.41 0 69.4 0 69.4-1.95 63.15-11.35 60.37-11.35 60.37-3.2Q60.37-2.17 61.42-2.1L61.42-2.1 63.57-1.95 63.57 0 52.22 0 52.22-1.95 54.66-2.1Q55.71-2.17 55.71-3.2L55.71-3.2 55.71-33.25 51.92-33.25 51.92-34.91 58.32-36.84 60.37-36.84 60.37-12.79 61.37-12.79 68.72-21.09Q68.82-21.22 68.82-21.41L68.82-21.41Q68.82-21.9 68.31-21.95L68.31-21.95 66.25-22.14 66.25-24.1 75.97-24.1 75.97-22.14 72.77-21.8 66.16-14.75 74.78-2.25 77.41-1.95ZM103.41-12.01L103.41-12.01Q103.41-8.47 101.95-5.6 100.48-2.73 97.81-1.06 95.13 0.61 91.47 0.61L91.47 0.61Q87.83 0.61 85.17-1.05 82.51-2.71 81.07-5.57 79.63-8.42 79.63-12.01L79.63-12.01Q79.63-15.58 81.08-18.46 82.54-21.34 85.23-23.02 87.93-24.71 91.62-24.71L91.62-24.71Q95.35-24.71 97.99-23 100.63-21.29 102.02-18.41 103.41-15.53 103.41-12.01ZM98.21-12.06L98.21-12.06Q98.21-14.79 97.49-17.16 96.77-19.53 95.29-21 93.82-22.46 91.57-22.46L91.57-22.46Q89.25-22.46 87.77-21 86.3-19.53 85.59-17.16 84.88-14.79 84.88-12.06L84.88-12.06Q84.88-9.35 85.6-6.97 86.32-4.59 87.8-3.13 89.27-1.66 91.52-1.66L91.52-1.66Q93.82-1.66 95.29-3.13 96.77-4.59 97.49-6.96 98.21-9.33 98.21-12.06ZM118.62-1.95L118.62 0 106.46 0 106.46-1.95 109.12-2.1Q109.46-2.1 109.84-2.47 110.22-2.83 110.22-3.15L110.22-3.15 110.22-33.25 106.41-33.25 106.41-34.91 112.81-36.84 114.86-36.84 114.86-3.15Q114.86-2.83 115.22-2.47 115.59-2.1 115.91-2.1L115.91-2.1 118.62-1.95ZM144.57-1.95L144.57 0 137.17 0 136.51-2.95Q136.51-2.95 135.77-2.42 135.02-1.88 133.8-1.17 132.58-0.46 131.1 0.07 129.63 0.61 128.16 0.61L128.16 0.61Q125.45 0.61 123.56-1.2 121.67-3 121.67-6.15L121.67-6.15Q121.67-7.54 122.17-8.74 122.67-9.94 124.17-11.02 125.67-12.11 128.64-13.15 131.6-14.18 136.51-15.26L136.51-15.26 136.51-17.41Q136.51-22.34 131.85-22.34L131.85-22.34Q130.55-22.34 129.61-22.09 128.67-21.85 128.31-21.7L128.31-21.7 128.31-17.36 124.67-17.36Q123.99-17.36 123.4-17.61 122.81-17.87 122.81-18.8L122.81-18.8Q122.81-20.85 124.38-22.16 125.94-23.46 128.34-24.08 130.75-24.71 133.22-24.71L133.22-24.71Q136.32-24.71 138.02-23.74 139.73-22.78 140.42-21.08 141.1-19.38 141.1-17.21L141.1-17.21 141.1-3.2Q141.1-2.73 141.41-2.44 141.71-2.15 142.15-2.1L142.15-2.1 144.57-1.95ZM136.51-4.71L136.51-4.71 136.51-13.35Q133.14-12.52 131.15-11.68 129.16-10.84 128.19-10 127.21-9.16 126.9-8.29 126.6-7.42 126.6-6.49L126.6-6.49Q126.6-4.96 127.59-3.65 128.58-2.34 130.36-2.34L130.36-2.34Q131.36-2.34 132.43-2.7 133.51-3.05 134.44-3.53 135.36-4 135.94-4.36 136.51-4.71 136.51-4.71ZM156.04-3.86L156.04-3.86Q156.04-2.25 154.93-1.12 153.82 0 152.21 0L152.21 0Q150.57 0 149.46-1.12 148.35-2.25 148.35-3.86L148.35-3.86Q148.35-5.47 149.46-6.58 150.57-7.69 152.21-7.69L152.21-7.69Q153.82-7.69 154.93-6.58 156.04-5.47 156.04-3.86Z" fill="#000000" data-fill-palette-color="primary"></path></g></svg></g></svg></g></svg></g></svg></g></svg></g><defs></defs></svg><rect width="395.52" height="150.68328023970982" fill="none" stroke="none" visibility="hidden"></rect></g></svg></g></svg>